<svg xmlns="http://www.w3.org/2000/svg" version="1.1" xmlns:xlink="http://www.w3.org/1999/xlink" width="2000" height="1252" viewBox="0 0 2000 1252"><g transform="matrix(1,0,0,1,-1.2121212121212466,-2.01935483870966)"><svg viewBox="0 0 396 248" data-background-color="#ffffff" preserveAspectRatio="xMidYMid meet" height="1252" width="2000" xmlns="http://www.w3.org/2000/svg" xmlns:xlink="http://www.w3.org/1999/xlink"><g id="tight-bounds" transform="matrix(1,0,0,1,0.2400000000000091,0.4000000000000057)"><svg viewBox="0 0 395.52 247.2" height="247.2" width="395.52"><g><svg></svg></g><g><svg viewBox="0 0 395.52 247.2" height="247.2" width="395.52"><g transform="matrix(1,0,0,1,88.32269084624626,47.215199999999996)"><svg viewBox="0 0 218.87461830750746 152.7696" height="152.7696" width="218.87461830750746"><g><svg viewBox="0 0 244.43136 170.6076354737162" height="152.7696" width="218.87461830750746"><g><svg viewBox="0 0 244.43136 170.6076354737162" height="170.6076354737162" width="244.43136"><g id="textblocktransform"><svg viewBox="0 0 244.43136 170.6076354737162" height="170.6076354737162" width="244.43136" id="textblock"><g><svg viewBox="0 0 244.43136 121.34890212765958" height="121.34890212765958" width="244.43136"><g transform="matrix(1,0,0,1,0,0)"><svg width="244.43136" viewBox="1.7999999999999998 -28 56.400000000000006 28" height="121.34890212765958" data-palette-color="#111111"><path d="M18.2-18Q18.2-16.85 18-16L18-16 16-16Q16.2-15.2 16.2-14L16.2-14Q16.2-12.85 16-12L16-12 18-12Q18.2-11.2 18.2-10L18.2-10Q18.2-8.85 18-8L18-8Q18.2-7.2 18.2-6L18.2-6Q18.2-4.85 18-4L18-4 16-4Q16.2-3.2 16.2-2L16.2-2Q16.2-0.85 16 0L16 0 2 0Q1.8-0.85 1.8-2L1.8-2Q1.8-3.2 2-4L2-4Q1.8-4.85 1.8-6L1.8-6Q1.8-7.2 2-8L2-8Q1.8-8.85 1.8-10L1.8-10Q1.8-11.2 2-12L2-12Q1.8-12.85 1.8-14L1.8-14Q1.8-15.2 2-16L2-16Q1.8-16.85 1.8-18L1.8-18Q1.8-19.2 2-20L2-20Q1.8-20.85 1.8-22L1.8-22Q1.8-23.2 2-24L2-24Q1.8-24.85 1.8-26L1.8-26Q1.8-27.2 2-28L2-28 16-28Q16.2-27.2 16.2-26L16.2-26Q16.2-24.85 16-24L16-24 18-24Q18.2-23.2 18.2-22L18.2-22Q18.2-20.85 18-20L18-20Q18.2-19.2 18.2-18L18.2-18ZM14-16Q13.8-16.85 13.8-18L13.8-18Q13.8-19.2 14-20L14-20Q13.8-20.85 13.8-22L13.8-22Q13.8-23.2 14-24L14-24 6-24Q6.2-23.2 6.2-22L6.2-22Q6.2-20.85 6-20L6-20Q6.2-19.2 6.2-18L6.2-18Q6.2-16.85 6-16L6-16 14-16ZM14-8Q13.8-8.85 13.8-10L13.8-10Q13.8-11.2 14-12L14-12 6-12Q6.2-11.2 6.2-10L6.2-10Q6.2-8.85 6-8L6-8Q6.2-7.2 6.2-6L6.2-6Q6.2-4.85 6-4L6-4 14-4Q13.8-4.85 13.8-6L13.8-6Q13.8-7.2 14-8L14-8ZM32.7-6Q32.7-4.85 32.5-4L32.5-4Q32.7-3.2 32.7-2L32.7-2Q32.7-0.85 32.5 0L32.5 0 27.5 0Q27.3-0.85 27.3-2L27.3-2Q27.3-3.2 27.5-4L27.5-4Q27.3-4.85 27.3-6L27.3-6Q27.3-7.2 27.5-8L27.5-8 32.5-8Q32.7-7.2 32.7-6L32.7-6ZM58.2-6Q58.2-4.85 58-4L58-4Q58.2-3.2 58.2-2L58.2-2Q58.2-0.85 58 0L58 0 54 0Q53.8-0.85 53.8-2L53.8-2Q53.8-3.2 54-4L54-4Q53.8-4.85 53.8-6L53.8-6Q53.8-7.2 54-8L54-8 46-8Q46.2-7.2 46.2-6L46.2-6Q46.2-4.85 46-4L46-4Q46.2-3.2 46.2-2L46.2-2Q46.2-0.85 46 0L46 0 42 0Q41.8-0.85 41.8-2L41.8-2Q41.8-3.2 42-4L42-4Q41.8-4.85 41.8-6L41.8-6Q41.8-7.2 42-8L42-8 43.5-8Q43.3-8.85 43.3-10L43.3-10Q43.3-11.2 43.5-12L43.5-12Q43.3-12.85 43.3-14L43.3-14Q43.3-15.2 43.5-16L43.5-16 44.5-16Q44.3-16.85 44.3-18L44.3-18Q44.3-19.2 44.5-20L44.5-20 46-20Q45.8-20.85 45.8-22L45.8-22Q45.8-23.2 46-24L46-24 47-24Q46.8-24.85 46.8-26L46.8-26Q46.8-27.2 47-28L47-28 53-28Q53.2-27.2 53.2-26L53.2-26Q53.2-24.85 53-24L53-24 54-24Q54.2-23.2 54.2-22L54.2-22Q54.2-20.85 54-20L54-20 55.5-20Q55.7-19.2 55.7-18L55.7-18Q55.7-16.85 55.5-16L55.5-16 56.5-16Q56.7-15.2 56.7-14L56.7-14Q56.7-12.85 56.5-12L56.5-12Q56.7-11.2 56.7-10L56.7-10Q56.7-8.85 56.5-8L56.5-8 58-8Q58.2-7.2 58.2-6L58.2-6ZM52.5-12Q52.3-12.85 52.3-14L52.3-14Q52.3-15.2 52.5-16L52.5-16 51.5-16Q51.3-16.85 51.3-18L51.3-18Q51.3-19.2 51.5-20L51.5-20 48.5-20Q48.7-19.2 48.7-18L48.7-18Q48.7-16.85 48.5-16L48.5-16 47.5-16Q47.7-15.2 47.7-14L47.7-14Q47.7-12.85 47.5-12L47.5-12 52.5-12Z" opacity="1" transform="matrix(1,0,0,1,0,0)" fill="#000000" class="wordmark-text-0" data-fill-palette-color="primary" id="text-0"></path></svg></g></svg></g><g transform="matrix(1,0,0,1,0,149.99646554634896)"><svg viewBox="0 0 164.86895231999998 20.611169927367246" height="20.611169927367246" width="164.86895231999998"><g transform="matrix(1,0,0,1,0,0)"><svg width="164.86895231999998" viewBox="2.2 -39.65 403.90000000000003 50.5" height="20.611169927367246" data-palette-color="#111111"><path d="M2.85-26.45L9-26.45 9 0 2.85 0 2.85-26.45ZM5.9-39.65Q7.55-39.65 8.58-38.6 9.6-37.55 9.6-35.9L9.6-35.9Q9.6-34.3 8.58-33.25 7.55-32.2 5.9-32.2L5.9-32.2Q4.25-32.2 3.23-33.25 2.2-34.3 2.2-35.9L2.2-35.9Q2.2-37.55 3.23-38.6 4.25-39.65 5.9-39.65L5.9-39.65ZM38.35-27.15Q41-27.15 42.6-25.1 44.2-23.05 44.2-19.6L44.2-19.6 44.2 0 38.15 0 38.15-18.95Q38.15-20.85 37.65-21.68 37.15-22.5 36.2-22.5L36.2-22.5Q34.25-22.5 32.45-18.8L32.45-18.8 32.45 0 26.45 0 26.45-18.95Q26.45-22.5 24.55-22.5L24.55-22.5Q22.5-22.5 20.75-18.8L20.75-18.8 20.75 0 14.7 0 14.7-26.45 20.05-26.45 20.45-23.05Q23.05-27.15 26.7-27.15L26.7-27.15Q28.55-27.15 29.9-26 31.25-24.85 31.95-22.75L31.95-22.75Q34.6-27.15 38.35-27.15L38.35-27.15ZM61.9-27.15Q65.8-27.15 67.8-23.58 69.8-20 69.8-13.3L69.8-13.3Q69.8-6.8 67.52-3.03 65.25 0.75 61.2 0.75L61.2 0.75Q58 0.75 55.85-2.1L55.85-2.1 55.85 10.15 49.7 10.85 49.7-26.45 55.15-26.45 55.4-23.25Q56.7-25.25 58.3-26.2 59.9-27.15 61.9-27.15L61.9-27.15ZM59.55-3.95Q61.45-3.95 62.45-6.13 63.45-8.3 63.45-13.25L63.45-13.25Q63.45-18.45 62.6-20.5 61.75-22.55 59.95-22.55L59.95-22.55Q57.65-22.55 55.85-19.25L55.85-19.25 55.85-6.45Q57.45-3.95 59.55-3.95L59.55-3.95ZM83.79-27.15Q88.79-27.15 91.57-23.65 94.34-20.15 94.34-13.25L94.34-13.25Q94.34-6.65 91.54-2.95 88.74 0.75 83.79 0.75L83.79 0.75Q78.84 0.75 76.04-2.88 73.24-6.5 73.24-13.25L73.24-13.25Q73.24-19.95 76.04-23.55 78.84-27.15 83.79-27.15L83.79-27.15ZM83.79-22.5Q81.64-22.5 80.64-20.38 79.64-18.25 79.64-13.25L79.64-13.25Q79.64-8.2 80.64-6.08 81.64-3.95 83.79-3.95L83.79-3.95Q85.94-3.95 86.94-6.08 87.94-8.2 87.94-13.25L87.94-13.25Q87.94-18.3 86.94-20.4 85.94-22.5 83.79-22.5L83.79-22.5ZM106.24-27.15Q110.94-27.15 114.19-24.05L114.19-24.05 111.84-20.7Q110.44-21.7 109.19-22.2 107.94-22.7 106.64-22.7L106.64-22.7Q105.19-22.7 104.37-21.93 103.54-21.15 103.54-19.8L103.54-19.8Q103.54-18.45 104.47-17.63 105.39-16.8 108.19-15.7L108.19-15.7Q111.64-14.35 113.29-12.5 114.94-10.65 114.94-7.55L114.94-7.55Q114.94-3.7 112.24-1.48 109.54 0.75 105.39 0.75L105.39 0.75Q102.69 0.75 100.42-0.23 98.14-1.2 96.44-2.95L96.44-2.95 99.44-6.25Q102.24-3.8 105.14-3.8L105.14-3.8Q106.79-3.8 107.74-4.67 108.69-5.55 108.69-7.1L108.69-7.1Q108.69-8.25 108.29-8.97 107.89-9.7 106.89-10.33 105.89-10.95 103.89-11.7L103.89-11.7Q100.44-13.05 98.97-14.85 97.49-16.65 97.49-19.45L97.49-19.45Q97.49-22.8 99.87-24.98 102.24-27.15 106.24-27.15L106.24-27.15ZM126.14-27.15Q130.84-27.15 134.09-24.05L134.09-24.05 131.74-20.7Q130.34-21.7 129.09-22.2 127.84-22.7 126.54-22.7L126.54-22.7Q125.09-22.7 124.26-21.93 123.44-21.15 123.44-19.8L123.44-19.8Q123.44-18.45 124.36-17.63 125.29-16.8 128.09-15.7L128.09-15.7Q131.54-14.35 133.19-12.5 134.84-10.65 134.84-7.55L134.84-7.55Q134.84-3.7 132.14-1.48 129.44 0.75 125.29 0.75L125.29 0.75Q122.59 0.75 120.31-0.23 118.04-1.2 116.34-2.95L116.34-2.95 119.34-6.25Q122.14-3.8 125.04-3.8L125.04-3.8Q126.69-3.8 127.64-4.67 128.59-5.55 128.59-7.1L128.59-7.1Q128.59-8.25 128.19-8.97 127.79-9.7 126.79-10.33 125.79-10.95 123.79-11.7L123.79-11.7Q120.34-13.05 118.86-14.85 117.39-16.65 117.39-19.45L117.39-19.45Q117.39-22.8 119.76-24.98 122.14-27.15 126.14-27.15L126.14-27.15ZM138.69-26.45L144.84-26.45 144.84 0 138.69 0 138.69-26.45ZM141.74-39.65Q143.39-39.65 144.41-38.6 145.44-37.55 145.44-35.9L145.44-35.9Q145.44-34.3 144.41-33.25 143.39-32.2 141.74-32.2L141.74-32.2Q140.09-32.2 139.06-33.25 138.04-34.3 138.04-35.9L138.04-35.9Q138.04-37.55 139.06-38.6 140.09-39.65 141.74-39.65L141.74-39.65ZM162.68-27.15Q166.53-27.15 168.58-23.65 170.63-20.15 170.63-13.25L170.63-13.25Q170.63-6.75 168.33-3 166.03 0.75 162.03 0.75L162.03 0.75Q160.28 0.75 158.83-0.13 157.38-1 156.33-2.55L156.33-2.55 155.98 0 150.53 0 150.53-37 156.68-37.65 156.68-23.6Q157.73-25.3 159.26-26.23 160.78-27.15 162.68-27.15L162.68-27.15ZM160.38-3.9Q162.23-3.9 163.26-6 164.28-8.1 164.28-13.25L164.28-13.25Q164.28-18.6 163.36-20.58 162.43-22.55 160.73-22.55L160.73-22.55Q159.58-22.55 158.53-21.6 157.48-20.65 156.68-19.1L156.68-19.1 156.68-6.7Q157.33-5.45 158.31-4.67 159.28-3.9 160.38-3.9L160.38-3.9ZM180.83 0.75Q178.13 0.75 176.56-0.93 174.98-2.6 174.98-5.4L174.98-5.4 174.98-37.05 181.13-37.7 181.13-5.65Q181.13-5 181.43-4.6 181.73-4.2 182.33-4.2L182.33-4.2Q182.68-4.2 183.01-4.3 183.33-4.4 183.43-4.4L183.43-4.4 184.63-0.2Q182.93 0.75 180.83 0.75L180.83 0.75ZM206.53-13.85Q206.53-13.4 206.38-11.3L206.38-11.3 192.73-11.3Q192.93-7.2 194.15-5.58 195.38-3.95 197.63-3.95L197.63-3.95Q199.18-3.95 200.43-4.48 201.68-5 203.13-6.15L203.13-6.15 205.68-2.65Q202.18 0.75 197.28 0.75L197.28 0.75Q192.08 0.75 189.3-2.85 186.53-6.45 186.53-13L186.53-13Q186.53-19.55 189.18-23.35 191.83-27.15 196.68-27.15L196.68-27.15Q201.33-27.15 203.93-23.78 206.53-20.4 206.53-13.85L206.53-13.85ZM200.53-15.3L200.53-15.65Q200.53-19.4 199.63-21.13 198.73-22.85 196.73-22.85L196.73-22.85Q194.88-22.85 193.9-21.18 192.93-19.5 192.73-15.3L192.73-15.3 200.53-15.3ZM220.67-26.45L226.82-26.45 226.82 0 220.67 0 220.67-26.45ZM223.72-39.65Q225.37-39.65 226.4-38.6 227.42-37.55 227.42-35.9L227.42-35.9Q227.42-34.3 226.4-33.25 225.37-32.2 223.72-32.2L223.72-32.2Q222.07-32.2 221.05-33.25 220.02-34.3 220.02-35.9L220.02-35.9Q220.02-37.55 221.05-38.6 222.07-39.65 223.72-39.65L223.72-39.65ZM239.87-27.15Q244.57-27.15 247.82-24.05L247.82-24.05 245.47-20.7Q244.07-21.7 242.82-22.2 241.57-22.7 240.27-22.7L240.27-22.7Q238.82-22.7 238-21.93 237.17-21.15 237.17-19.8L237.17-19.8Q237.17-18.45 238.1-17.63 239.02-16.8 241.82-15.7L241.82-15.7Q245.27-14.35 246.92-12.5 248.57-10.65 248.57-7.55L248.57-7.55Q248.57-3.7 245.87-1.48 243.17 0.75 239.02 0.75L239.02 0.75Q236.32 0.75 234.05-0.23 231.77-1.2 230.07-2.95L230.07-2.95 233.07-6.25Q235.87-3.8 238.77-3.8L238.77-3.8Q240.42-3.8 241.37-4.67 242.32-5.55 242.32-7.1L242.32-7.1Q242.32-8.25 241.92-8.97 241.52-9.7 240.52-10.33 239.52-10.95 237.52-11.7L237.52-11.7Q234.07-13.05 232.6-14.85 231.12-16.65 231.12-19.45L231.12-19.45Q231.12-22.8 233.5-24.98 235.87-27.15 239.87-27.15L239.87-27.15ZM274.62-27.15Q277.47-27.15 279.12-25.1 280.77-23.05 280.77-19.6L280.77-19.6 280.77 0 274.62 0 274.62-18.9Q274.62-20.8 274.09-21.63 273.57-22.45 272.57-22.45L272.57-22.45Q270.47-22.45 268.42-18.5L268.42-18.5 268.42 0 262.27 0 262.27-26.45 267.62-26.45 268.07-23Q269.42-25.1 270.94-26.13 272.47-27.15 274.62-27.15L274.62-27.15ZM295.71-27.15Q300.71-27.15 303.49-23.65 306.26-20.15 306.26-13.25L306.26-13.25Q306.26-6.65 303.46-2.95 300.66 0.75 295.71 0.75L295.71 0.75Q290.76 0.75 287.96-2.88 285.16-6.5 285.16-13.25L285.16-13.25Q285.16-19.95 287.96-23.55 290.76-27.15 295.71-27.15L295.71-27.15ZM295.71-22.5Q293.56-22.5 292.56-20.38 291.56-18.25 291.56-13.25L291.56-13.25Q291.56-8.2 292.56-6.08 293.56-3.95 295.71-3.95L295.71-3.95Q297.86-3.95 298.86-6.08 299.86-8.2 299.86-13.25L299.86-13.25Q299.86-18.3 298.86-20.4 297.86-22.5 295.71-22.5L295.71-22.5ZM321.96-5L324.11-1.2Q321.66 0.75 318.36 0.75L318.36 0.75Q314.91 0.75 313.11-1.23 311.31-3.2 311.31-6.6L311.31-6.6 311.31-22 308.21-22 308.21-26.45 311.31-26.45 311.31-32.3 317.46-33.05 317.46-26.45 322.46-26.45 321.86-22 317.46-22 317.46-6.6Q317.46-4.2 319.51-4.2L319.51-4.2Q320.16-4.2 320.66-4.38 321.16-4.55 321.96-5L321.96-5ZM339.01-27.15Q341.86-27.15 343.51-25.1 345.16-23.05 345.16-19.6L345.16-19.6 345.16 0 339.01 0 339.01-18.9Q339.01-20.8 338.48-21.63 337.96-22.45 336.96-22.45L336.96-22.45Q334.86-22.45 332.81-18.5L332.81-18.5 332.81 0 326.66 0 326.66-37 332.81-37.65 332.81-23.3Q334.06-25.25 335.53-26.2 337.01-27.15 339.01-27.15L339.01-27.15ZM350.71-26.45L356.86-26.45 356.86 0 350.71 0 350.71-26.45ZM353.76-39.65Q355.41-39.65 356.43-38.6 357.46-37.55 357.46-35.9L357.46-35.9Q357.46-34.3 356.43-33.25 355.41-32.2 353.76-32.2L353.76-32.2Q352.11-32.2 351.08-33.25 350.06-34.3 350.06-35.9L350.06-35.9Q350.06-37.55 351.08-38.6 352.11-39.65 353.76-39.65L353.76-39.65ZM374.9-27.15Q377.75-27.15 379.4-25.1 381.05-23.05 381.05-19.6L381.05-19.6 381.05 0 374.9 0 374.9-18.9Q374.9-20.8 374.38-21.63 373.85-22.45 372.85-22.45L372.85-22.45Q370.75-22.45 368.7-18.5L368.7-18.5 368.7 0 362.55 0 362.55-26.45 367.9-26.45 368.35-23Q369.7-25.1 371.23-26.13 372.75-27.15 374.9-27.15L374.9-27.15ZM404.55-29.85L406.1-25.1Q405.05-24.6 403.58-24.4 402.1-24.2 399.9-24.2L399.9-24.2Q402-23.2 403.03-21.53 404.05-19.85 404.05-17.4L404.05-17.4Q404.05-13.4 401.6-10.95 399.15-8.5 394.95-8.5L394.95-8.5Q393.7-8.5 392.4-8.9L392.4-8.9Q391.5-8.15 391.5-6.85L391.5-6.85Q391.5-5.85 392.05-5.35 392.6-4.85 394.1-4.85L394.1-4.85 396.9-4.85Q400.9-4.85 403.25-2.78 405.6-0.7 405.6 2.5L405.6 2.5Q405.6 6.3 402.68 8.58 399.75 10.85 394.35 10.85L394.35 10.85Q388.65 10.85 386.38 8.75 384.1 6.65 384.1 2.6L384.1 2.6 389.55 2.6Q389.55 4.75 390.55 5.65 391.55 6.55 394.4 6.55L394.4 6.55Q397.15 6.55 398.3 5.6 399.45 4.65 399.45 2.9L399.45 2.9Q399.45 1.2 398.5 0.4 397.55-0.4 395.55-0.4L395.55-0.4 393.65-0.4Q389.85-0.4 388.1-1.75 386.35-3.1 386.35-5.45L386.35-5.45Q386.35-6.8 387.08-8.03 387.8-9.25 389.05-10.2L389.05-10.2Q387-11.5 386.05-13.3 385.1-15.1 385.1-17.7L385.1-17.7Q385.1-22.05 387.7-24.58 390.3-27.1 394.7-27.1L394.7-27.1Q397.95-27.1 400.08-27.8 402.2-28.5 404.55-29.85L404.55-29.85ZM394.7-23Q392.95-23 392.05-21.75 391.15-20.5 391.15-17.8L391.15-17.8Q391.15-15.25 392.05-13.88 392.95-12.5 394.65-12.5L394.65-12.5Q396.4-12.5 397.25-13.73 398.1-14.95 398.1-17.85L398.1-17.85Q398.1-20.55 397.28-21.78 396.45-23 394.7-23L394.7-23Z" opacity="1" transform="matrix(1,0,0,1,0,0)" fill="#000000" class="slogan-text-1" data-fill-palette-color="secondary" id="text-1"></path></svg></g></svg></g></svg></g></svg></g></svg></g></svg></g><path d="M266.646 41.215L266.646 0 19.446 0 19.446 247.2 266.646 247.2 266.646 205.985 256.847 205.985 256.847 237.401 29.245 237.401 29.245 9.799 256.847 9.799 256.847 41.215Z" fill="#000000" stroke="transparent" data-fill-palette-color="tertiary"></path></svg></g><defs></defs></svg><rect width="395.52" height="247.2" fill="none" stroke="none" visibility="hidden"></rect></g></svg></g></svg>